# xmcd CD database file
#
# Track frame offsets:
#	150
#	13347
#	26604
#	39569
#	51774
#	62942
#	77234
#	87101
#	103524
#	116103
#	129979
#	142276
#	155435
#	165464
#	175881
#	189376
#	201526
#	214962
#	228355
#	240825
#
# Disc length: 3373 seconds
#
# Revision: 0
# Processed by: cddbd v1.5.2PL0 Copyright (c) Steve Scherf et al.
# Submitted via: CDex 1.70beta2
#
DISCID=190d2b14
DTITLE=Howlin' Wolf - 20 Légendes du Blues CD 09
DYEAR=2008
DGENRE=Blues
TTITLE0=I'm The Wolf
TTITLE1=Baby How Long
TTITLE2=Forty Four
TTITLE3=Don't Mess With My Baby
TTITLE4=Come To Me Baby
TTITLE5=You Can't Be Beat
TTITLE6=So Glad
TTITLE7=Bluebird
TTITLE8=I Want Your Picture
TTITLE9=Ridding In The Moonlight
TTITLE10=Passing By Blues
TTITLE11=Just My Kind
TTITLE12=Work For Your Money
TTITLE13=All Night Boogie
TTITLE14=The Wolf Is At Your Door
TTITLE15=Getting Old And Gray
TTITLE16=My Last Affair
TTITLE17=California Blues
TTITLE18=Dorothy Mae
TTITLE19=Howlin' Wolf Boogie
EXTD=YEAR: 2008
EXTT0=
EXTT1=
EXTT2=
EXTT3=
EXTT4=
EXTT5=
EXTT6=
EXTT7=
EXTT8=
EXTT9=
EXTT10=
EXTT11=
EXTT12=
EXTT13=
EXTT14=
EXTT15=
EXTT16=
EXTT17=
EXTT18=
EXTT19=
PLAYORDER=
